<?xml version="1.0" standalone="no"?> <!DOCTYPE svg PUBLIC "-//W3C//DTD SVG 1.0//EN" "http://www.w3.org/TR/2001/REC-SVG-20010904/DTD/svg10.dtd" > <svg xmlns="http://www.w3.org/2000/svg" width="100%" height="100%">
<defs >
<font id="aller-regular" horiz-adv-x="555" ><font-face
    font-family="Aller"
    units-per-em="1000"
    panose-1="2 0 5 3 3 0 0 2 0 4"
    ascent="936"
    descent="-249"
    alphabetic="0" />
<missing-glyph horiz-adv-x="500" />
<glyph unicode=" " glyph-name="space" horiz-adv-x="237" />
<glyph unicode="!" glyph-name="exclam" horiz-adv-x="290" d="M93 719Q106 721 118 722T144 723Q158 723 172 722T200 719L194 216Q171 212 147 212Q120 212 100 216L93 719ZM89 0Q87 14 86 27T85 55Q85 69 86 83T89 112Q103 114 116 115T144 116Q158 116 172
115T201 112Q203 98 204 84T205 56Q205 42 204 28T201 0Q187 -2 173 -3T145 -4Q131 -4 117 -3T89 0Z" />
<glyph unicode="&quot;" glyph-name="quotedbl" horiz-adv-x="420" d="M260 719Q271 721 283 722T308 723Q320 723 332 722T355 719V445Q332 442 308 442Q282 442 260 445V719ZM64 719Q75 721 87 722T112 723Q124 723 136 722T159 719V445Q136 442 112 442Q86
442 64 445V719Z" />
<glyph unicode="#" glyph-name="numbersign" horiz-adv-x="735" d="M190 209H66Q63 227 63 246Q63 257 64 268T67 288H197L211 453H87Q83 469 83 492Q83 514 87 531H217L231 690Q243 692 254 692T278 693Q289 693 299 693T320 691L307 531H477L491 690Q503 692
514 692T538 693Q549 693 559 693T581 691L567 531H684Q687 513 687 495Q687 472 684 453H561L547 288H663Q665 280 666 270T667 251Q667 240 666 229T663 209H540L525 29Q502 26 481 26Q458 26 437 29L451 209H281L267 29Q243 26 220 26Q199 26 175 29L190 209ZM457
288L471 453H300L287 288H457Z" />
<glyph unicode="$" glyph-name="dollar" horiz-adv-x="600" d="M274 -11Q269 -12 266 -12T260 -12Q229 -12 204 -10T158 -4T116 6T75 19Q77 41 83 63T98 107Q132 96 168 88T255 79Q337 79 377 111T417 199Q417 227 409 246T383 279T340 304T279 331L231 351Q201
363 176 378T133 413T104 462T94 529Q94 606 140 655T274 716V813Q289 817 308 817Q328 817 344 813V720Q386 718 426 711T496 693Q491 651 474 610Q447 620 412 627T331 635Q268 635 234 611T200 537Q200 513 209 496T235 465T277 440T333 416L371 400Q407 385
436 369T485 331T517 279T529 206Q529 121 481 68T344 -3V-118Q336 -120 327 -121T310 -122Q301 -122 292 -121T274 -118V-11Z" />
<glyph unicode="%" glyph-name="percent" horiz-adv-x="1050" d="M718 708Q730 710 742 711T767 712Q780 712 793 711T819 708L336 1Q322 -1 310 -2T286 -3Q258 -3 235 1L718 708ZM908 201Q908 267 886 303T812 340Q763 340 740 304T716 201Q716 134 738 98T812
61Q861 61 884 97T908 201ZM624 201Q624 244 635 282T670 350T728 396T812 413Q860 413 895 396T953 350T988 283T1000 201Q1000 157 989 119T954 52T895 6T812 -11Q764 -11 729 6T670 51T636 118T624 201ZM328 507Q328 573 306 609T232 646Q183 646 160 610T136
507Q136 440 158 404T232 367Q281 367 304 403T328 507ZM44 507Q44 550 55 588T90 656T148 702T232 719Q280 719 315 702T373 656T408 589T420 507Q420 463 409 425T374 358T315 312T232 295Q184 295 149 312T90 357T56 424T44 507Z" />
<glyph unicode="&amp;" glyph-name="ampersand" horiz-adv-x="761" d="M185 555Q185 512 213 487T305 461H523L615 587H623V461H753Q757 444 757 422Q757 411 756 401T753 380H623V232Q623 171 602 125T542 49T449 3T328 -12Q275 -12 226 0T140 38T80 105T58 204Q58
237 67 269T94 328T135 376T186 408Q143 427 114 462T84 558Q84 602 101 634T147 688T215 720T299 731Q325 731 357 727T424 711Q423 688 418 671T402 636Q376 644 352 647T305 651Q272 651 250 643T213 621T192 590T185 555ZM336 78Q394 78 431 93T490 133T519
191T527 259V378H324Q288 378 259 366T210 331T179 281T168 220Q168 151 211 115T336 78Z" />
<glyph unicode="&apos;" glyph-name="quotesingle" horiz-adv-x="223" d="M64 719Q75 721 87 722T112 723Q124 723 136 722T159 719V445Q136 442 112 442Q86 442 64 445V719Z" />
<glyph unicode="(" glyph-name="parenleft" horiz-adv-x="319" d="M171 -167Q148 -133 127 -85T88 24T61 154T50 304Q50 383 60 454T88 585T126 693T171 776Q179 778 191 779T218 780Q232 780 245 779T269 776Q257 755 237 715T198 615T164 478T150 304Q150 209
164 131T197 -6T237 -105T269 -167Q258 -169 244 -170T216 -171Q203 -171 191 -170T171 -167Z" />
<glyph unicode=")" glyph-name="parenright" horiz-adv-x="319" d="M50 -167Q62 -146 82 -106T121 -6T155 131T169 304Q169 400 155 477T122 614T82 714T50 776Q61 778 74 779T101 780Q115 780 127 779T148 776Q170 741 192 693T231 585T258 454T269 304Q269 225
259 155T231 24T192 -84T148 -167Q140 -169 128 -170T103 -171Q89 -171 75 -170T50 -167Z" />
<glyph unicode="*" glyph-name="asterisk" horiz-adv-x="485" d="M212 719Q227 722 242 722Q257 722 274 719L282 589Q271 587 262 587T242 586Q232 586 223 586T204 589L212 719ZM183 576Q177 536 160 502L38 550Q42 581 58 609L183 576ZM168 481Q184 473 200
462T231 436L148 335Q134 343 122 351T98 372L168 481ZM427 609Q443 581 447 550L325 502Q308 536 302 576L427 609ZM387 372Q376 360 364 352T337 335L254 436Q269 450 285 461T317 481L387 372Z" />
<glyph unicode="+" glyph-name="plus" horiz-adv-x="600" d="M256 307H90Q86 327 86 352Q86 376 90 396H256V578Q267 580 277 581T300 582Q311 582 322 581T345 578V396H510Q512 385 513 374T514 352Q514 341 513 330T510 307H345V126Q333 124 322 123T300 122Q275
122 256 126V307Z" />
<glyph unicode="," glyph-name="comma" horiz-adv-x="213" d="M79 110Q91 112 103 113T127 115Q150 115 178 110L115 -113Q103 -115 91 -115T67 -116Q55 -116 43 -116T20 -113L79 110Z" />
<glyph unicode="-" glyph-name="hyphen" horiz-adv-x="361" d="M310 326Q312 316 313 304T314 280Q314 269 313 257T310 235H51Q49 244 48 256T47 280Q47 291 48 303T51 326H310Z" />
<glyph unicode="." glyph-name="period" horiz-adv-x="241" d="M65 0Q63 14 62 27T60 55Q60 69 61 83T65 112Q79 114 92 115T120 116Q134 116 148 115T176 112Q178 98 179 84T181 56Q181 42 180 28T176 0Q162 -2 149 -3T121 -4Q107 -4 93 -3T65 0Z" />
<glyph unicode="/" glyph-name="slash" horiz-adv-x="410" d="M278 719Q290 721 301 722T326 723Q337 723 349 722T375 719L131 0Q119 -2 107 -3T82 -4Q71 -4 59 -3T35 0L278 719Z" />
<glyph unicode="0" glyph-name="zero" horiz-adv-x="600" d="M302 655Q365 655 412 630T491 561T538 455T554 321Q554 249 538 188T491 82T411 13T300 -12Q237 -12 190 13T112 82T65 187T49 321Q49 394 65 455T112 560T191 630T302 655ZM301 567Q232 567 193 506T154
321Q154 197 193 137T301 76Q370 76 408 136T446 321Q446 445 408 506T301 567Z" />
<glyph unicode="1" glyph-name="one" horiz-adv-x="600" d="M137 449Q123 466 115 483T99 523L365 650H380V85H523Q526 62 526 43Q526 22 523 0H132Q128 20 128 43Q128 65 132 85H282V515L137 449Z" />
<glyph unicode="2" glyph-name="two" horiz-adv-x="600" d="M63 0L57 13L253 242Q279 273 301 300T340 354T366 405T376 457Q376 510 342 538T245 566Q197 566 164 555T100 530Q92 550 85 571T75 614Q110 629 152 642T252 655Q303 655 345 644T417 609T464 551T481
467Q481 400 444 337T339 197L243 88H508Q510 77 511 66T512 43Q512 32 511 21T508 0H63Z" />
<glyph unicode="3" glyph-name="three" horiz-adv-x="600" d="M226 15Q264 15 297 23T355 49T394 95T409 165Q409 227 368 257T261 287Q241 287 221 286T180 279L172 293L339 556H82Q78 576 78 599Q78 610 79 622T82 645H487L494 633L312 356Q315 357 319 357T327
357Q374 357 408 341T465 298T499 239T510 174Q510 110 488 64T427 -13T338 -58T229 -73Q179 -73 135 -65T48 -40Q51 -18 59 3T79 44Q111 31 146 23T226 15Z" />
<glyph unicode="4" glyph-name="four" horiz-adv-x="600" d="M41 78L33 89L326 663Q347 661 369 653T413 630L180 166H382V356Q394 358 406 359T429 360Q442 360 454 359T479 356V166H571Q573 155 574 144T575 122Q575 111 574 100T571 78H479V-59Q466 -61 455
-61T431 -62Q419 -62 407 -62T382 -59V78H41Z" />
<glyph unicode="5" glyph-name="five" horiz-adv-x="600" d="M511 171Q511 108 489 62T429 -14T338 -58T224 -73Q186 -73 143 -66T63 -44Q66 -22 73 -2T91 40Q122 29 152 23T224 16Q311 16 358 52T406 166Q406 194 398 219T370 262T321 291T246 302Q215 302 185
297T132 284L122 293Q125 381 128 468T136 645H476Q478 634 478 624T479 602Q479 590 479 579T476 556H226L220 378Q239 382 258 383T289 384Q339 384 380 370T450 329T495 262T511 171Z" />
<glyph unicode="6" glyph-name="six" horiz-adv-x="600" d="M66 277Q66 365 88 443T157 582T276 681T447 728Q455 704 455 682Q455 672 454 662T451 644Q388 638 340 615T256 554T200 469T169 365Q191 403 233 430T340 458Q380 458 418 445T487 403T535 332T553
228Q553 169 533 124T478 49T401 4T311 -12Q254 -12 209 4T132 56T83 145T66 277ZM315 374Q286 374 260 364T215 335T185 287T174 223Q174 148 209 111T308 74Q338 74 363 84T408 113T438 160T449 225Q449 265 439 293T410 339T368 365T315 374Z" />
<glyph unicode="7" glyph-name="seven" horiz-adv-x="600" d="M245 -74Q218 -68 196 -59T152 -32L408 556H70Q68 566 67 576T66 598Q66 610 67 622T70 645H545L549 638L245 -74Z" />
<glyph unicode="8" glyph-name="eight" horiz-adv-x="600" d="M398 381Q424 370 450 354T498 314T533 258T547 184Q547 131 526 94T470 33T391 -1T300 -12Q253 -12 209 -2T130 32T74 93T53 184Q53 226 66 257T101 313T149 353T201 381Q153 404 120 444T86 546Q86
585 102 617T147 671T215 706T300 719Q346 719 385 707T452 672T497 617T514 546Q514 484 481 444T398 381ZM300 339Q270 330 244 317T200 285T170 244T159 193Q159 137 195 105T300 73Q370 73 405 105T441 193Q441 221 430 244T400 285T356 316T300 339ZM300 419Q324
426 345 436T382 461T407 494T417 539Q417 584 388 611T300 638Q242 638 213 611T183 539Q183 514 192 495T218 461T255 437T300 419Z" />
<glyph unicode="9" glyph-name="nine" horiz-adv-x="600" d="M540 364Q540 276 518 198T449 59T330 -40T159 -87Q151 -68 151 -40Q151 -32 152 -22T155 -2Q216 3 265 26T351 87T408 172T436 276Q415 238 373 210T266 182Q225 182 187 195T119 237T71 308T53 412Q53
471 73 516T128 591T205 637T295 653Q352 653 397 637T474 585T523 495T540 364ZM291 267Q320 267 346 277T391 306T421 354T432 417Q432 492 397 529T298 567Q238 567 198 529T157 415Q157 375 167 347T196 301T238 275T291 267Z" />
<glyph unicode=":" glyph-name="colon" horiz-adv-x="241" d="M65 403Q63 417 62 430T60 458Q60 472 61 486T65 515Q79 517 92 518T120 519Q134 519 148 518T176 515Q178 501 179 487T181 459Q181 445 180 431T176 403Q162 401 149 400T121 399Q107 399 93 400T65
403ZM65 0Q63 14 62 27T60 55Q60 69 61 83T65 112Q79 114 92 115T120 116Q134 116 148 115T176 112Q178 98 179 84T181 56Q181 42 180 28T176 0Q162 -2 149 -3T121 -4Q107 -4 93 -3T65 0Z" />
<glyph unicode=";" glyph-name="semicolon" horiz-adv-x="260" d="M88 110Q100 112 112 113T136 115Q159 115 187 110L124 -113Q112 -115 100 -115T76 -116Q64 -116 52 -116T29 -113L88 110ZM83 403Q81 417 80 430T78 458Q78 472 79 486T83 515Q97 517 110 518T138
519Q152 519 166 518T194 515Q196 501 197 487T199 459Q199 445 198 431T194 403Q180 401 167 400T139 399Q125 399 111 400T83 403Z" />
<glyph unicode="&lt;" glyph-name="less" horiz-adv-x="600" d="M511 566Q516 538 516 520Q516 506 515 494T512 471L184 344L512 222Q514 211 515 199T516 175Q516 160 515 147T511 122L95 291Q89 316 89 346Q89 373 95 397L511 566Z" />
<glyph unicode="=" glyph-name="equal" horiz-adv-x="600" d="M512 489Q514 479 515 467T516 443Q516 432 515 420T512 398H88Q86 407 86 419T85 443Q85 454 85 466T88 489H512ZM512 554Q514 544 515 532T516 508Q516 497 515 485T512 463H88Q86 472 86 484T85
508Q85 519 85 531T88 554H512Z" />
<glyph unicode="&gt;" glyph-name="greater" horiz-adv-x="600" d="M89 122Q87 136 86 147T85 168Q85 182 86 194T89 217L416 344L89 466Q86 477 85 489T84 513Q84 529 85 542T89 566L506 397Q508 384 510 371T512 342Q512 315 506 291L89 122Z" />
<glyph unicode="?" glyph-name="question" horiz-adv-x="488" d="M182 376Q220 386 250 398T301 428T333 469T344 524Q344 575 306 604T197 633Q152 633 125 627T68 609Q59 628 53 648T43 692Q67 700 87 705T127 714T167 718T210 720Q328 720 388 667T449 525Q449
474 429 438T381 377T324 338T277 317V214Q254 210 228 210Q217 210 205 211T182 214V376ZM173 1Q171 15 170 28T169 56Q169 70 170 84T173 112Q187 114 201 115T229 117Q243 117 257 116T285 112Q287 98 288 85T289 57Q289 43 288 29T285 1Q272 -1 258 -2T230
-3Q216 -3 200 -2T173 1Z" />
<glyph unicode="@" glyph-name="at" horiz-adv-x="1014" d="M959 393Q959 331 941 271T887 163T801 86T688 56Q618 56 578 87Q549 70 513 60T434 50Q364 50 322 92T279 209Q279 277 302 334T364 433T455 498T567 522Q607 522 643 516T715 499L643 142Q653 134
667 132T696 129Q738 129 770 153T824 216T858 301T870 393Q870 520 795 586T584 652Q480 652 399 616T263 518T178 379T149 218Q149 140 171 84T233 -7T325 -60T439 -77Q488 -77 531 -70T609 -49Q615 -63 621 -80T631 -119Q558 -153 437 -153Q359 -153 290 -131T168
-64T86 51T56 214Q56 304 87 395T185 561T352 683T594 730Q670 730 736 710T852 647T930 542T959 393ZM608 436Q595 439 584 440T561 442Q522 442 489 426T431 380T392 312T378 228Q378 177 400 153T468 129Q491 129 510 133T553 148L608 436Z" />
<glyph unicode="A" glyph-name="A" horiz-adv-x="617" d="M442 166H169L120 0Q107 -2 94 -3T68 -4Q54 -4 41 -3T16 0L250 719Q263 721 278 722T309 723Q323 723 338 722T367 719L600 0Q588 -2 573 -3T544 -4Q531 -4 518 -3T492 0L442 166ZM196 255H415L305 622L196 255Z" />
<glyph unicode="B" glyph-name="B" horiz-adv-x="595" d="M89 719Q114 724 159 727T250 730Q307 730 354 720T434 688T486 630T505 543Q505 512 496 486T470 439T433 405T390 385Q418 382 446 370T498 336T535 281T550 199Q550 141 527 101T465 35T372 -1T257
-12Q219 -12 174 -9T89 0V719ZM190 79Q204 77 225 76T268 75Q304 75 335 81T391 101T429 140T443 203Q443 240 430 265T395 306T341 328T274 335H190V79ZM263 419Q331 419 367 448T403 537Q403 594 365 622T260 650Q240 650 222 649T190 646V419H263Z" />
<glyph unicode="C" glyph-name="C" horiz-adv-x="618" d="M547 105Q569 62 575 22Q533 4 489 -4T394 -12Q316 -12 254 13T148 86T82 202T59 355Q59 441 82 510T148 629T253 704T392 731Q449 731 490 723T563 704Q561 681 555 662T539 620Q524 625 510 629T480
636T445 640T400 642Q291 642 231 568T170 355Q170 284 187 232T235 146T309 95T407 78Q449 78 483 85T547 105Z" />
<glyph unicode="D" glyph-name="D" horiz-adv-x="699" d="M89 719Q123 723 171 726T265 730Q454 730 547 634T641 358Q641 170 546 79T261 -12Q214 -12 168 -9T89 0V719ZM191 84Q205 82 225 81T269 79Q328 79 376 92T460 138T514 224T533 361Q533 436 514 489T461
575T378 624T272 639Q253 639 231 639T191 635V84Z" />
<glyph unicode="E" glyph-name="E" horiz-adv-x="536" d="M88 719H483Q486 699 486 675Q486 664 486 652T483 630H190V424H424Q426 414 427 403T428 380Q428 369 427 357T424 335H190V89H491Q494 69 494 45Q494 34 494 22T491 0H88V719Z" />
<glyph unicode="F" glyph-name="F" horiz-adv-x="504" d="M88 719H464Q466 709 467 698T468 675Q468 664 467 652T464 630H190V419H419Q421 408 422 397T423 374Q423 363 422 352T419 329H190V0Q178 -2 166 -3T139 -4Q126 -4 113 -3T88 0V719Z" />
<glyph unicode="G" glyph-name="G" horiz-adv-x="681" d="M504 372Q516 374 529 375T555 376Q568 376 581 375T605 372V21Q584 12 559 6T507 -4T453 -10T402 -12Q322 -12 258 13T150 85T83 201T59 355Q59 441 83 510T151 629T257 704T394 731Q451 731 493 724T569
703Q567 680 561 661T545 619Q517 628 485 635T403 642Q350 642 307 623T233 568T185 478T168 355Q168 284 185 233T235 147T310 96T407 79Q439 79 463 82T504 91V372Z" />
<glyph unicode="H" glyph-name="H" horiz-adv-x="686" d="M88 719Q100 721 113 722T139 723Q152 723 165 722T190 719V423H496V719Q507 721 520 722T546 723Q559 723 572 722T598 719V0Q587 -2 574 -3T547 -4Q534 -4 521 -3T496 0V333H190V0Q178 -2 166 -3T139
-4Q126 -4 113 -3T88 0V719Z" />
<glyph unicode="I" glyph-name="I" horiz-adv-x="278" d="M88 719Q100 721 113 722T139 723Q152 723 165 722T190 719V0Q178 -2 166 -3T139 -4Q126 -4 113 -3T88 0V719Z" />
<glyph unicode="J" glyph-name="J" horiz-adv-x="396" d="M211 630H85Q83 640 82 652T81 675Q81 686 82 697T85 719H313V200Q313 140 300 99T262 34T201 -1T120 -12Q96 -12 72 -9T28 0Q28 20 32 42T44 87Q56 84 71 81T104 77Q122 77 140 80T175 93T201 123T211 177V630Z" />
<glyph unicode="K" glyph-name="K" horiz-adv-x="601" d="M220 365L451 719Q465 721 478 722T503 723Q516 723 531 722T562 719L334 374L591 0Q575 -2 560 -3T530 -4Q518 -4 504 -3T475 0L220 365ZM88 719Q100 721 113 722T139 723Q152 723 165 722T190 719V0Q178
-2 165 -3T139 -4Q125 -4 112 -3T88 0V719Z" />
<glyph unicode="L" glyph-name="L" horiz-adv-x="495" d="M88 719Q99 721 111 722T138 723Q151 723 164 722T189 719V90H471Q473 79 473 67T474 45Q474 21 471 0H88V719Z" />
<glyph unicode="M" glyph-name="M" horiz-adv-x="816" d="M108 719Q120 721 135 722T165 723Q179 723 195 722T223 719L409 269L596 719Q606 721 621 722T650 723Q663 723 679 722T706 719L740 0Q728 -2 716 -3T690 -4Q677 -4 665 -3T641 0L618 559L442 149Q422
146 401 146Q382 146 363 149L193 562L170 0Q159 -2 147 -3T124 -4Q111 -4 99 -3T76 0L108 719Z" />
<glyph unicode="N" glyph-name="N" horiz-adv-x="680" d="M88 719Q99 721 111 722T135 723Q146 723 158 722T182 719L495 179V719Q507 721 520 722T546 723Q557 723 569 722T592 719V0Q581 -2 569 -3T545 -4Q534 -4 522 -3T498 0L184 537V0Q173 -2 161 -3T136
-4Q123 -4 111 -3T88 0V719Z" />
<glyph unicode="O" glyph-name="O" horiz-adv-x="729" d="M365 -12Q287 -12 230 15T136 92T80 210T61 359Q61 440 79 508T135 625T230 703T365 731Q443 731 500 703T594 626T650 508T668 359Q668 278 650 210T595 93T500 16T365 -12ZM365 76Q415 76 451 95T512
152T548 241T560 359Q560 424 548 476T512 565T452 621T365 641Q315 641 279 622T218 566T182 477T170 359Q170 293 182 241T218 152T278 96T365 76Z" />
<glyph unicode="P" glyph-name="P" horiz-adv-x="566" d="M88 720Q103 722 123 724T166 727T211 730T255 731Q310 731 359 720T446 682T506 611T528 499Q528 429 505 383T443 308T355 269T255 257Q236 257 222 257T190 260V0Q166 -3 139 -3Q127 -3 114 -3T88 0V720ZM190
349Q206 347 218 346T253 345Q284 345 314 351T369 375T407 421T422 498Q422 539 410 567T375 612T322 636T255 643Q218 643 190 640V349Z" />
<glyph unicode="Q" glyph-name="Q" horiz-adv-x="724" d="M675 -65Q674 -88 671 -110T658 -154L428 -111Q430 -83 434 -65T446 -25L675 -65ZM362 -12Q284 -12 227 15T133 92T77 210T58 359Q58 440 76 508T132 625T227 703T362 731Q440 731 497 703T591 626T647
508T665 359Q665 278 647 210T592 93T497 16T362 -12ZM362 76Q412 76 448 95T509 152T545 241T557 359Q557 424 545 476T509 565T449 621T362 641Q312 641 276 622T215 566T179 477T167 359Q167 293 179 241T215 152T275 96T362 76Z" />
<glyph unicode="R" glyph-name="R" horiz-adv-x="597" d="M90 720Q112 722 130 724T165 727T202 730T244 731Q295 731 345 721T434 686T497 619T522 511Q522 472 509 440T476 383T431 340T381 309L369 303L578 0Q551 -3 517 -3Q490 -3 463 0L233 333V337L241 339Q268
346 298 358T353 389T396 436T413 503Q413 575 371 610T256 645Q239 645 225 644T192 641V0Q181 -1 168 -2T142 -3Q130 -3 116 -3T90 0V720Z" />
<glyph unicode="S" glyph-name="S" horiz-adv-x="545" d="M70 109Q103 97 139 88T227 79Q309 79 349 112T390 203Q390 231 382 251T356 285T314 312T254 338L197 361Q168 373 144 387T103 423T75 471T65 537Q65 628 127 679T301 731Q349 731 392 723T468 703Q463
661 446 620Q419 630 384 638T303 646Q240 646 206 621T172 544Q172 523 180 507T203 478T236 455T276 437L332 415Q372 399 403 382T456 341T489 285T501 210Q501 107 430 48T231 -12Q200 -12 175 -10T129 -4T87 6T46 19Q48 41 55 64T70 109Z" />
<glyph unicode="T" glyph-name="T" horiz-adv-x="526" d="M212 630H25Q23 640 22 652T21 675Q21 686 22 697T25 719H501Q503 709 504 698T505 676Q505 665 504 653T501 630H314V0Q291 -3 264 -3Q236 -3 212 0V630Z" />
<glyph unicode="U" glyph-name="U" horiz-adv-x="674" d="M81 719Q105 722 133 722Q160 722 183 719V311Q183 249 191 205T217 134T264 93T337 80Q380 80 409 93T456 133T482 205T490 311V719Q515 722 541 722Q569 722 593 719V293Q593 221 580 164T536 68T456
9T337 -12Q267 -12 218 8T139 68T95 164T81 293V719Z" />
<glyph unicode="V" glyph-name="V" horiz-adv-x="629" d="M22 719Q33 721 48 722T78 723Q91 723 106 722T135 719L317 104L498 719Q525 722 553 722Q566 722 580 722T607 719L373 0Q360 -2 344 -3T314 -4Q300 -4 285 -3T255 0L22 719Z" />
<glyph unicode="W" glyph-name="W" horiz-adv-x="921" d="M27 719Q38 721 54 722T85 723Q99 723 113 722T140 719L263 120L411 719Q423 721 437 722T465 723Q477 723 492 722T518 719L667 114L792 719Q803 721 815 722T840 723Q854 723 868 722T894 719L721 0Q709
-2 693 -3T664 -4Q650 -4 633 -3T602 0L460 563L316 0Q302 -2 286 -3T255 -4Q243 -4 228 -3T200 0L27 719Z" />
<glyph unicode="X" glyph-name="X" horiz-adv-x="609" d="M300 376L129 0Q100 -3 76 -3Q51 -3 21 0L199 376L49 718Q64 720 77 720T104 721Q131 721 157 718L300 376ZM308 376L451 718Q462 719 472 720T493 721H520Q531 721 539 721T558 718L408 379L587 0Q557
-3 532 -3Q510 -3 479 0L308 376Z" />
<glyph unicode="Y" glyph-name="Y" horiz-adv-x="592" d="M246 263L18 719Q31 721 46 722T76 723Q89 723 104 722T132 719L300 362L466 719Q479 721 492 722T519 723Q533 723 547 722T574 719L349 263V0Q336 -2 323 -3T297 -4Q284 -4 271 -3T246 0V263Z" />
<glyph unicode="Z" glyph-name="Z" horiz-adv-x="566" d="M24 9L386 630H69Q67 639 66 651T65 674Q65 685 66 697T69 719H536L543 710L180 89H517Q519 80 520 68T521 44Q521 33 520 21T517 0H30L24 9Z" />
<glyph unicode="[" glyph-name="bracketleft" horiz-adv-x="319" d="M50 760H265Q267 749 268 740T269 719Q269 708 268 698T265 679H148V-87H265Q267 -97 268 -106T269 -127Q269 -138 268 -148T265 -168H50V760Z" />
<glyph unicode="\" glyph-name="backslash" horiz-adv-x="412" d="M373 0Q361 -2 349 -3T326 -4Q313 -4 301 -3T276 0L32 719Q43 721 56 722T81 723Q93 723 106 722T130 719L373 0Z" />
<glyph unicode="]" glyph-name="bracketright" horiz-adv-x="319" d="M54 -168Q50 -149 50 -127Q50 -104 54 -87H171V678H54Q52 686 51 694T50 710Q50 737 54 760H269V-168H54Z" />
<glyph unicode="^" glyph-name="asciicircum" horiz-adv-x="550" d="M223 719Q235 721 248 722T273 723Q286 723 299 722T327 719L487 368Q473 366 462 366T439 365Q428 365 417 365T394 367L272 635L155 367Q144 365 132 365T109 365Q99 365 87 365T61 368L223 719Z" />
<glyph unicode="_" glyph-name="underscore" horiz-adv-x="505" d="M500 -15Q504 -32 504 -52Q504 -71 500 -88H6Q3 -78 2 -69T1 -50Q1 -42 2 -33T6 -15H500Z" />
<glyph unicode="`" glyph-name="grave" horiz-adv-x="500" d="M129 721Q144 723 159 724T192 725Q208 725 224 724T256 721L371 594Q348 590 324 590Q309 590 296 591T271 594L129 721Z" />
<glyph unicode="a" glyph-name="a" horiz-adv-x="517" d="M351 241Q336 243 313 245T274 247Q212 247 180 224T147 154Q147 124 158 107T185 81T222 70T260 68Q283 68 307 70T351 78V241ZM351 338Q351 397 321 420T234 443Q199 443 169 438T109 423Q90 456 90
502Q124 513 165 519T244 525Q344 525 396 480T448 334V13Q413 5 363 -3T261 -12Q212 -12 173 -3T106 26T63 77T48 152Q48 195 65 227T113 281T182 313T264 324Q296 324 316 323T351 319V338Z" />
<glyph unicode="b" glyph-name="b" horiz-adv-x="590" d="M79 733Q90 735 103 736T128 737Q139 737 153 736T178 733V451Q196 481 234 503T326 525Q372 525 411 510T478 464T521 384T537 269Q537 137 463 63T248 -12Q204 -12 158 -4T79 16V733ZM178 83Q196 77
216 75T259 72Q296 72 327 83T382 118T418 178T432 265Q432 348 403 394T307 440Q284 440 262 433T220 409T190 365T178 298V83Z" />
<glyph unicode="c" glyph-name="c" horiz-adv-x="478" d="M422 89Q430 75 436 54T443 11Q384 -12 308 -12Q180 -12 115 60T50 256Q50 313 66 362T113 447T192 504T301 525Q343 525 375 520T436 504Q436 487 432 465T419 425Q370 442 307 442Q230 442 192 391T154
256Q154 160 197 116T315 71Q345 71 370 75T422 89Z" />
<glyph unicode="d" glyph-name="d" horiz-adv-x="586" d="M409 733Q420 735 434 736T458 737Q469 737 482 736T507 733V14Q469 3 422 -4T317 -12Q263 -12 215 1T130 46T73 126T52 247Q52 309 70 360T123 447T204 504T310 524Q336 524 362 520T409 510V733ZM409
426Q389 434 366 438T316 442Q275 442 245 427T196 386T167 325T157 247Q158 152 202 111T322 70Q348 70 370 72T409 80V426Z" />
<glyph unicode="e" glyph-name="e" horiz-adv-x="556" d="M154 232Q156 148 197 109T320 70Q391 70 455 95Q463 80 468 59T474 16Q441 2 402 -5T314 -12Q244 -12 194 7T112 62T64 146T49 253Q49 310 63 359T108 445T183 503T291 525Q344 525 384 507T451 458T492
383T506 288Q506 274 505 259T503 232H154ZM408 306Q408 334 401 359T379 404T342 434T288 446Q227 446 195 409T155 306H408Z" />
<glyph unicode="f" glyph-name="f" horiz-adv-x="370" d="M115 435H31Q27 451 27 474Q27 496 31 513H115V549Q115 644 162 693T301 743Q326 743 345 741T381 733Q379 708 376 690T366 653Q356 655 343 657T310 660Q288 660 271 656T241 639T221 604T214 546V513H345Q348
493 348 472Q348 453 345 435H214V0Q203 -2 190 -3T165 -4Q154 -4 140 -3T115 0V435Z" />
<glyph unicode="g" glyph-name="g" horiz-adv-x="553" d="M355 66Q444 64 484 28T524 -71Q524 -112 503 -144T445 -200T358 -236T248 -249Q145 -249 91 -217T37 -116Q37 -75 59 -43T116 9Q96 22 83 41T69 90Q69 127 85 154T130 202Q97 225 77 261T57 344Q57 382
71 415T111 472T177 511T266 525Q311 525 347 512T410 479Q430 495 464 505T539 516Q543 497 543 474Q543 463 542 451T539 427H449Q460 410 466 390T472 344Q472 303 457 270T415 214T349 178T266 165Q225 165 192 174Q178 166 165 150T151 114Q151 96 164 83T222
68L355 66ZM220 -13Q175 -12 153 -37T130 -97Q130 -119 139 -133T164 -155T203 -167T253 -171Q333 -171 378 -145T423 -78Q423 -48 404 -32T334 -15L220 -13ZM266 237Q320 237 346 267T372 344Q372 392 346 422T266 453Q212 453 187 423T161 344Q161 297 186 267T266
237Z" />
<glyph unicode="h" glyph-name="h" horiz-adv-x="578" d="M79 733Q90 735 103 736T128 737Q139 737 153 736T178 733V435Q187 449 200 465T233 494T278 516T335 525Q423 525 465 475T508 325V0Q497 -2 484 -3T459 -4Q448 -4 435 -3T410 0V298Q410 369 387 402T315
436Q288 436 263 427T219 397T189 343T178 263V0Q167 -2 153 -3T128 -4Q118 -4 104 -3T79 0V733Z" />
<glyph unicode="i" glyph-name="i" horiz-adv-x="288" d="M110 435H45Q43 443 42 453T41 474Q41 484 42 494T45 513H207V0Q196 -2 183 -3T158 -4Q148 -4 135 -3T110 0V435ZM88 626Q86 638 86 652T85 677Q85 688 85 702T88 727Q101 729 116 730T142 731Q153 731
168 730T195 727Q197 716 197 702T198 677Q198 666 198 652T195 626Q183 624 169 623T143 622Q131 622 116 623T88 626Z" />
<glyph unicode="j" glyph-name="j" horiz-adv-x="290" d="M113 435H48Q46 443 45 453T44 474Q44 484 45 494T48 513H210V-29Q210 -74 198 -104T165 -152T114 -179T51 -187Q-3 -187 -40 -174Q-39 -155 -35 -135T-24 -99Q0 -107 32 -107Q45 -107 59 -105T85 -95T105
-69T113 -22V435ZM89 627Q87 641 86 653T85 677Q85 688 86 700T89 726Q102 728 117 729T143 731Q154 731 168 730T195 726Q197 713 198 701T199 677Q199 666 198 654T195 627Q183 625 169 624T143 622Q132 622 117 623T89 627Z" />
<glyph unicode="k" glyph-name="k" horiz-adv-x="514" d="M76 733Q87 735 100 736T125 737Q136 737 150 736T175 733V0Q164 -2 150 -3T125 -4Q114 -4 101 -3T76 0V733ZM202 266L365 513Q378 515 391 516T418 517Q433 517 446 516T474 513L311 273L502 0Q488 -2
475 -3T448 -4Q434 -4 420 -3T392 0L202 266Z" />
<glyph unicode="l" glyph-name="l" horiz-adv-x="298" d="M78 733Q89 735 102 736T127 737Q138 737 151 736T176 733V155Q176 127 181 111T194 87T214 76T239 73Q248 73 259 74T279 77Q288 42 288 1Q274 -4 254 -5T217 -7Q188 -7 163 0T119 23T89 66T78 133V733Z" />
<glyph unicode="m" glyph-name="m" horiz-adv-x="854" d="M80 513Q91 515 101 516T123 517Q134 517 143 516T164 513Q167 498 170 474T173 432Q182 450 195 466T227 496T270 517T323 525Q383 525 415 501T465 432Q475 449 489 466T522 496T563 517T615 525Q704
525 744 475T785 327V0Q774 -2 760 -3T735 -4Q724 -4 711 -3T686 0V298Q686 367 665 401T596 436Q545 436 514 399T482 290V0Q471 -2 458 -3T433 -4Q422 -4 409 -3T384 0V305Q384 372 364 405T300 439Q275 439 253 428T215 395T189 340T179 262V0Q168 -2 155 -3T130
-4Q119 -4 105 -3T80 0V513Z" />
<glyph unicode="n" glyph-name="n" horiz-adv-x="578" d="M80 513Q91 515 101 516T123 517Q134 517 143 516T164 513Q167 498 170 473T173 430Q183 447 198 464T234 494T280 516T337 525Q425 525 467 475T509 325V0Q498 -2 484 -3T459 -4Q448 -4 435 -3T410 0V298Q410
369 388 402T318 436Q290 436 265 426T221 395T191 341T179 260V0Q168 -2 155 -3T130 -4Q119 -4 105 -3T80 0V513Z" />
<glyph unicode="o" glyph-name="o" horiz-adv-x="577" d="M288 -12Q228 -12 183 8T108 65T64 150T49 256Q49 313 63 362T108 447T183 504T288 525Q348 525 393 504T468 447T512 362T527 256Q527 199 513 150T468 65T393 9T288 -12ZM288 67Q357 67 390 117T423
256Q423 345 390 394T288 444Q219 444 187 395T154 256Q154 167 186 117T288 67Z" />
<glyph unicode="p" glyph-name="p" horiz-adv-x="590" d="M79 513Q89 515 99 516T121 517Q131 517 142 516T163 513Q164 511 165 501T168 478T171 455T173 441Q183 457 197 472T230 499T274 518T329 525Q374 525 412 510T478 464T521 384T537 269Q537 137 466
63T263 -12Q241 -12 218 -9T178 -1V-236Q166 -238 153 -239T128 -240Q117 -240 104 -239T79 -236V513ZM178 84Q197 77 217 74T269 71Q305 71 335 82T386 118T420 178T433 265Q433 345 404 392T307 439Q282 439 259 430T218 403T189 358T178 292V84Z" />
<glyph unicode="q" glyph-name="q" horiz-adv-x="585" d="M408 0Q387 -5 364 -8T311 -11Q259 -11 212 1T130 44T73 122T52 243Q52 305 71 357T127 446T214 504T330 525Q386 525 426 519T506 502V-236Q495 -238 482 -239T457 -240Q446 -240 433 -239T408 -236V0ZM408
434Q394 437 385 438T367 440T350 441T330 442Q286 442 253 427T199 385T166 321T155 239Q155 194 167 162T200 110T251 80T315 71Q341 71 364 75T408 84V434Z" />
<glyph unicode="r" glyph-name="r" horiz-adv-x="372" d="M80 513Q91 515 101 516T122 517Q133 517 144 516T164 513Q167 498 170 474T173 432Q194 466 228 491T317 516Q325 516 333 516T348 514Q350 505 351 495T352 474Q352 462 351 449T347 424Q339 426 331
426T317 426Q290 426 266 419T222 392T191 340T179 255V0Q168 -2 155 -3T130 -4Q119 -4 106 -3T80 0V513Z" />
<glyph unicode="s" glyph-name="s" horiz-adv-x="455" d="M71 93Q98 82 130 76T195 69Q218 69 239 74T275 89T300 113T310 146Q310 166 303 179T283 201T254 216T218 229L183 242Q119 266 90 296T61 377Q61 445 109 485T252 525Q291 525 328 518T394 500Q392 480
387 460T373 423Q351 431 321 438T255 446Q218 446 190 433T161 387Q161 370 168 358T187 338T214 323T248 311L292 296Q316 288 337 277T374 250T399 210T409 153Q409 116 394 86T352 34T285 0T199 -12Q151 -12 115 -6T48 12Q50 32 56 52T71 93Z" />
<glyph unicode="t" glyph-name="t" horiz-adv-x="358" d="M99 434H21L17 448L189 640H197V513H327Q331 496 331 475Q331 464 330 454T327 434H197V200Q197 158 200 133T212 95T235 77T272 72Q289 72 304 74T331 80Q338 60 339 39T341 2Q321 -3 299 -5T252 -8Q180
-8 140 27T99 143V434Z" />
<glyph unicode="u" glyph-name="u" horiz-adv-x="574" d="M74 513Q85 515 99 516T123 517Q134 517 148 516T173 513V232Q173 184 182 153T209 103T253 78T313 71Q364 71 400 82V513Q411 515 424 516T449 517Q460 517 473 516T498 513V16Q463 6 415 -3T314 -12Q265
-12 222 -4T145 31T93 104T74 228V513Z" />
<glyph unicode="v" glyph-name="v" horiz-adv-x="531" d="M17 513Q31 515 46 516T73 517Q86 517 101 516T128 513L268 90L409 513Q420 515 434 516T461 517Q472 517 486 516T514 513L314 0Q301 -2 288 -3T264 -4Q253 -4 241 -3T216 0L17 513Z" />
<glyph unicode="w" glyph-name="w" horiz-adv-x="775" d="M22 513Q36 515 50 516T75 517Q89 517 103 516T129 513L229 94L342 513Q353 515 366 516T393 517Q409 516 420 516T443 513L555 101L655 513Q666 515 677 516T701 517Q712 517 725 516T753 513L600 0Q587
-2 574 -3T549 -4Q538 -4 525 -3T499 0L389 388L274 0Q260 -2 247 -3T222 -4Q211 -4 198 -3T173 0L22 513Z" />
<glyph unicode="x" glyph-name="x" horiz-adv-x="509" d="M157 266L36 513Q59 517 88 517Q102 517 115 516T144 513L250 265L122 0Q109 -2 97 -3T72 -4Q58 -4 45 -3T18 0L157 266ZM258 265L365 513Q379 515 393 516T421 517Q448 517 471 513L352 269L491 0Q477
-2 464 -3T437 -4Q410 -4 387 0L258 265Z" />
<glyph unicode="y" glyph-name="y" horiz-adv-x="529" d="M255 -1Q247 -1 239 -1T222 -2Q212 -2 201 -2T183 0L13 513Q26 515 40 515T66 516Q79 516 95 516T122 513L264 36L411 513Q432 516 460 516Q471 516 485 516T513 513L314 -104Q300 -145 285 -173T251 -218T209
-242T154 -249Q131 -249 109 -246T69 -237Q69 -214 73 -196T85 -160Q94 -163 109 -166T143 -170Q156 -170 167 -168T189 -158T207 -136T224 -98L255 -1Z" />
<glyph unicode="z" glyph-name="z" horiz-adv-x="477" d="M29 14L299 434H61Q58 452 58 474Q58 495 61 513H446L451 500L179 79H434Q437 59 437 38Q437 18 434 0H34L29 14Z" />
<glyph unicode="{" glyph-name="braceleft" horiz-adv-x="414" d="M152 39Q152 97 150 137T138 205T108 254T50 293V306Q77 320 96 335T128 371T145 416T151 476Q151 547 155 601T179 691T238 746T345 765H359Q361 755 362 746T363 725Q363 714 362 705T359 686Q321
686 299 678T266 652T251 604T247 533V527Q247 472 243 434T229 371T203 329T162 300Q186 287 202 271T229 229T243 165T247 72V65Q247 24 250 -5T265 -52T299 -78T359 -87Q361 -96 362 -105T363 -126Q363 -136 362 -146T359 -166Q299 -166 260 -154T196 -117T162
-53T152 39Z" />
<glyph unicode="|" glyph-name="bar" horiz-adv-x="333" d="M118 776Q129 778 141 779T167 780Q179 780 191 779T215 776V-168Q204 -170 192 -171T167 -172Q154 -172 142 -171T118 -168V776Z" />
<glyph unicode="}" glyph-name="braceright" horiz-adv-x="414" d="M261 39Q261 -14 251 -53T217 -117T154 -154T54 -166Q52 -156 51 -146T50 -126Q50 -115 51 -106T54 -87Q91 -87 113 -79T147 -52T162 -5T166 65V72Q166 127 170 165T184 228T210 270T251 300Q227
312 211 328T184 370T170 434T166 527V533Q166 575 163 604T148 651T114 678T54 686Q52 695 51 704T50 725Q50 736 51 745T54 765H68Q136 765 175 747T233 692T257 601T262 476Q262 442 267 417T285 371T316 336T363 306V293Q326 274 306 254T275 206T263 137T261
39Z" />
<glyph unicode="~" glyph-name="asciitilde" horiz-adv-x="477" d="M19 409Q39 433 75 450T151 468Q174 468 196 462T240 448T285 434T331 428Q351 428 371 435T417 465Q433 450 442 433T459 396Q436 373 405 359T332 344Q309 344 287 350T242 363T197 377T153
384Q129 384 108 376T62 345Q30 373 19 409Z" />
</font>
</defs>
</svg>
